<svg 
 xmlns="http://www.w3.org/2000/svg"
 xmlns:xlink="http://www.w3.org/1999/xlink"
 width="33px" height="33px">
<path fill-rule="evenodd"  fill="rgb(255, 255, 255)"
 d="M31.927,12.889 L1.071,12.889 C0.477,12.889 -0.005,12.407 -0.005,11.811 L-0.005,8.577 C-0.005,7.387 0.959,6.422 2.148,6.422 L4.543,6.422 C4.227,5.920 4.017,5.356 3.958,4.760 C3.767,2.854 4.769,1.145 6.475,0.388 C8.042,-0.308 9.804,-0.024 11.075,1.128 L14.113,3.886 C14.704,3.236 15.555,2.828 16.499,2.828 C17.442,2.828 18.291,3.235 18.882,3.882 L21.916,1.129 C23.185,-0.024 24.947,-0.309 26.515,0.387 C28.222,1.145 29.224,2.853 29.033,4.759 C28.974,5.355 28.764,5.919 28.448,6.422 L30.850,6.422 C32.039,6.422 33.003,7.387 33.003,8.577 L33.003,11.811 C33.003,12.407 32.521,12.889 31.927,12.889 ZM9.630,2.726 C8.970,2.127 8.099,2.010 7.312,2.374 C6.740,2.639 6.297,3.163 6.150,3.778 C5.815,5.173 6.868,6.422 8.206,6.422 L13.270,6.422 L13.270,6.062 C13.270,6.052 13.271,6.041 13.271,6.030 L9.630,2.726 ZM25.347,2.250 C24.634,2.037 23.863,2.270 23.311,2.771 C22.341,3.652 20.552,5.276 19.727,6.024 C19.727,6.037 19.728,6.050 19.728,6.063 L19.728,6.422 L24.685,6.422 C25.806,6.422 26.817,5.593 26.897,4.473 C26.972,3.427 26.371,2.556 25.347,2.250 ZM14.346,33.011 L4.300,33.011 C3.111,33.011 2.148,32.046 2.148,30.856 L2.148,15.045 L14.346,15.045 L14.346,33.011 ZM30.850,30.856 C30.850,32.046 29.886,33.011 28.698,33.011 L18.652,33.011 L18.652,15.045 L30.850,15.045 L30.850,30.856 Z"/>
</svg>